Coordinates
version=1
nRows=11
nColumns=36
inDegrees=yes

Units are S.I. units (second, meters, Newtons, ...)
If the header above contains a line with 'inDegrees', this indicates whether rotational values are in degrees (yes) or radians (no).

endheader
time	pelvis_tilt	pelvis_list	pelvis_rotation	pelvis_tx	pelvis_ty	pelvis_tz	hip_flexion_r	hip_adduction_r	hip_rotation_r	knee_angle_r	knee_angle_r_beta	ankle_angle_r	subtalar_angle_r	mtp_angle_r	hip_flexion_l	hip_adduction_l	hip_rotation_l	knee_angle_l	knee_angle_l_beta	ankle_angle_l	subtalar_angle_l	mtp_angle_l	lumbar_extension	lumbar_bending	lumbar_rotation	arm_flex_r	arm_add_r	arm_rot_r	elbow_flex_r	pro_sup_r	arm_flex_l	arm_add_l	arm_rot_l	elbow_flex_l	pro_sup_l
      3.76250000	    -17.92925139	     -1.83838931	      1.58600167	      0.44896584	      0.84444380	     -0.10440520	     43.32300385	     -4.52485929	     -4.17988104	     45.97018544	      0.80233109	     17.00368007	    -12.69811718	     -7.49999987	     45.41716262	     -9.99581346	     -2.35990668	     47.75703001	      0.83351741	     18.90969973	     -0.05908853	     -7.49999987	     -9.92097803	     -1.21022538	      0.80991085	     67.77991586	    -10.64345688	     32.72190703	    133.53787485	     99.33102132	     79.92883962	    -15.18940785	     45.65088934	    128.68824539	     89.55363921
      3.76666670	    -18.76978284	     -1.80699096	      1.49717283	      0.44436742	      0.83779919	     -0.10518458	     45.62362218	     -4.53155594	     -3.97868499	     48.46590422	      0.84588960	     18.73857520	    -13.59280982	     -7.49999987	     47.83423880	    -10.24706029	     -2.22338045	     50.17447172	      0.87570973	     20.22788879	      0.59469470	     -7.49999987	     -9.72827031	     -1.15870861	      1.10060912	     68.39266501	    -10.47697699	     32.64362160	    132.95033612	    101.55946532	     80.09323160	    -14.81044585	     45.69927471	    128.46822935	     92.40679027
      3.77083330	    -19.51780672	     -1.86936986	      1.47879395	      0.44297151	      0.82684470	     -0.10583606	     47.91890385	     -4.53453876	     -3.80112618	     51.18902663	      0.89341706	     19.90543103	    -14.43099819	     -7.49999987	     50.34954443	    -10.52623579	     -1.90764448	     52.97139504	      0.92452525	     21.25355808	      0.97522207	     -7.49999987	     -9.72466331	     -1.05685249	      1.34074030	     69.31537737	    -10.21929039	     32.59541783	    132.79186535	     99.56765081	     80.63608689	    -14.36129927	     46.02044052	    128.43462281	     90.51468157
      3.77500000	    -20.35024805	     -1.91103269	      1.40344509	      0.44015271	      0.82020429	     -0.10711211	     50.37717430	     -4.68407502	     -3.63653508	     53.87028636	      0.94021387	     20.65787412	    -14.96651501	     -7.49999987	     52.79285873	    -10.70311574	     -1.59193660	     55.55175447	      0.96956102	     22.23668919	      1.58820974	     -7.49999987	     -9.56754228	     -0.86917518	      1.54535327	     69.99816691	     -9.78787613	     32.72447661	    132.42710591	    100.96736559	     80.64176285	    -14.11158005	     46.01311977	    128.65784703	     92.74589807
      3.77916670	    -20.80028454	     -1.96695641	      1.24259110	      0.43719107	      0.81221243	     -0.10865764	     52.37857777	     -4.74757552	     -3.45029991	     56.17793702	      0.98048997	     21.30225578	    -15.44102768	     -7.49999987	     54.75789024	    -10.83473026	     -1.31409209	     58.00097293	      1.01230795	     23.01714891	      2.00934050	     -7.49999987	     -9.98133247	     -0.75014265	      1.83619173	     70.90642761	     -9.79333957	     32.63729795	    132.35359799	     99.35609499	     81.19540135	    -13.86514947	     46.16010848	    128.80788655	     91.46246619
      3.78333330	    -21.32314347	     -2.00720741	      1.21243443	      0.43524354	      0.80563357	     -0.10714058	     54.33229241	     -4.79013387	     -3.22098102	     58.45088124	      1.02016033	     22.07530289	    -15.16324302	     -7.49999987	     56.66033570	    -10.96657519	     -0.97775253	     60.14124165	      1.04966268	     23.52742284	      2.50142287	     -7.49999987	    -10.29216535	     -0.61712173	      2.13895293	     71.62122555	     -9.62861487	     32.71795200	    132.22777564	    100.87509162	     81.25443958	    -13.67766465	     46.03201050	    128.98617273	     93.61016253
      3.78750000	    -21.57448649	     -1.98914007	      1.21712788	      0.43341856	      0.79937421	     -0.10561432	     55.80681684	     -4.85945604	     -3.04437531	     60.24008648	      1.05138785	     22.63863120	    -15.20124163	     -7.49999987	     58.17484667	    -11.06495774	     -0.77576319	     61.98516772	      1.08184526	     23.90211117	      2.85347314	     -7.49999987	    -10.87171059	     -0.54782024	      2.33181967	     72.46716720	     -9.33605273	     33.06663931	    132.02217536	    100.45496270	     81.33609360	    -13.59883864	     45.90650939	    129.41083496	     93.41458489
      3.79166670	    -21.69795276	     -2.04239898	      1.15470435	      0.43119955	      0.79533711	     -0.10523773	     57.20516085	     -4.78783598	     -2.88494075	     62.11871187	      1.08417605	     22.85051195	    -15.29756558	     -7.49999987	     59.40060390	    -11.22189286	     -0.50597261	     63.52741566	      1.10876257	     24.11999409	      3.10241112	     -7.49999987	    -11.62534267	     -0.62819213	      2.54477491	     72.89729573	     -9.33209948	     33.21555726	    132.10353572	    100.03523943	     81.83632211	    -13.50957759	     46.26765561	    129.39035874	     92.99858299
      3.79583330	    -21.77178151	     -1.99803579	      1.04178808	      0.42805738	      0.78902088	     -0.10616314	     58.65589298	     -4.88686116	     -2.78611258	     64.06883902	      1.11821219	     22.70533333	    -15.71761482	     -7.49999987	     60.56371965	    -11.28242148	     -0.31661645	     65.11064202	      1.13639508	     24.31199989	      2.86499677	     -7.49999987	    -12.45551491	     -0.72412746	      2.57605603	     73.72280178	     -9.08506818	     33.12804791	    132.01641116	    100.76368972	     82.30405297	    -13.57051278	     46.02524965	    129.67953428	     93.82798862
      3.80000000	    -21.88286728	     -1.83717490	      0.89358315	      0.42623589	      0.78391250	     -0.10640132	     60.10981977	     -5.21725272	     -2.81706059	     65.98966096	      1.15173686	     22.47521699	    -16.02614884	     -7.49999987	     61.46394913	    -11.17001242	     -0.18779729	     66.23106195	      1.15595010	     24.75005823	      2.86396525	     -7.49999987	    -13.23151850	     -0.95484892	      2.65895360	     74.48540801	     -8.94467516	     33.14676750	    131.99803413	     98.87804161	     82.59383579	    -13.27289426	     46.01756093	    129.91254055	     92.36729002
      3.80416670	    -22.03198622	     -1.59120124	      0.76325220	      0.42208830	      0.77866474	     -0.10691300	     61.48861591	     -5.59626750	     -2.90096962	     67.58105362	      1.17951190	     22.22492378	    -16.17425069	     -7.49999987	     62.44005172	    -11.00359499	     -0.11653459	     67.44272530	      1.17709761	     25.08363591	      2.76285641	     -7.49999987	    -14.00279792	     -1.37540652	      2.70484313	     75.02750698	     -8.76682436	     32.72038556	    131.82610076	    101.86894952	     83.05642508	    -12.91828580	     45.75199115	    129.62882747	     94.82189537
